<svg width="32" height="33" viewBox="0 0 32 33" fill="none" xmlns="http://www.w3.org/2000/svg">
<ellipse cx="16" cy="16.384" rx="16" ry="16.384" fill="#BFE1C6"/>
<ellipse cx="16" cy="16.384" rx="8" ry="8.192" fill="#146B26"/>
<path d="M15.756 20.36C15.148 20.36 14.604 20.252 14.124 20.036C13.644 19.82 13.264 19.496 12.984 19.064C12.712 18.624 12.576 18.076 12.576 17.42V17.168H13.572V17.42C13.572 18.116 13.776 18.636 14.184 18.98C14.592 19.316 15.116 19.484 15.756 19.484C16.412 19.484 16.912 19.336 17.256 19.04C17.6 18.744 17.772 18.372 17.772 17.924C17.772 17.612 17.696 17.364 17.544 17.18C17.392 16.996 17.176 16.848 16.896 16.736C16.616 16.616 16.288 16.512 15.912 16.424L15.276 16.268C14.788 16.14 14.356 15.984 13.98 15.8C13.604 15.616 13.308 15.376 13.092 15.08C12.884 14.776 12.78 14.388 12.78 13.916C12.78 13.444 12.9 13.036 13.14 12.692C13.38 12.348 13.712 12.084 14.136 11.9C14.56 11.716 15.056 11.624 15.624 11.624C16.192 11.624 16.7 11.724 17.148 11.924C17.596 12.116 17.952 12.404 18.216 12.788C18.48 13.164 18.612 13.64 18.612 14.216V14.72H17.616V14.216C17.616 13.808 17.528 13.48 17.352 13.232C17.184 12.984 16.948 12.8 16.644 12.68C16.348 12.56 16.008 12.5 15.624 12.5C15.072 12.5 14.628 12.624 14.292 12.872C13.956 13.112 13.788 13.456 13.788 13.904C13.788 14.2 13.856 14.44 13.992 14.624C14.136 14.808 14.34 14.96 14.604 15.08C14.868 15.192 15.184 15.292 15.552 15.38L16.188 15.536C16.668 15.64 17.104 15.784 17.496 15.968C17.888 16.144 18.196 16.388 18.42 16.7C18.652 17.004 18.768 17.404 18.768 17.9C18.768 18.396 18.644 18.828 18.396 19.196C18.148 19.564 17.796 19.852 17.34 20.06C16.892 20.26 16.364 20.36 15.756 20.36ZM15.3 21.584V10.4H16.224V21.584H15.3Z" fill="#FEFEFE"/>
</svg>
