<svg width="32" height="32" viewBox="0 0 32 32" fill="none" xmlns="http://www.w3.org/2000/svg">
<circle cx="16" cy="16" r="16" fill="#EAA1A1"/>
<circle cx="16" cy="16" r="8" fill="#AB3333"/>
<path d="M15.756 20.168C15.148 20.168 14.604 20.06 14.124 19.844C13.644 19.628 13.264 19.304 12.984 18.872C12.712 18.432 12.576 17.884 12.576 17.228V16.976H13.572V17.228C13.572 17.924 13.776 18.444 14.184 18.788C14.592 19.124 15.116 19.292 15.756 19.292C16.412 19.292 16.912 19.144 17.256 18.848C17.6 18.552 17.772 18.18 17.772 17.732C17.772 17.42 17.696 17.172 17.544 16.988C17.392 16.804 17.176 16.656 16.896 16.544C16.616 16.424 16.288 16.32 15.912 16.232L15.276 16.076C14.788 15.948 14.356 15.792 13.98 15.608C13.604 15.424 13.308 15.184 13.092 14.888C12.884 14.584 12.78 14.196 12.78 13.724C12.78 13.252 12.9 12.844 13.14 12.5C13.38 12.156 13.712 11.892 14.136 11.708C14.56 11.524 15.056 11.432 15.624 11.432C16.192 11.432 16.7 11.532 17.148 11.732C17.596 11.924 17.952 12.212 18.216 12.596C18.48 12.972 18.612 13.448 18.612 14.024V14.528H17.616V14.024C17.616 13.616 17.528 13.288 17.352 13.04C17.184 12.792 16.948 12.608 16.644 12.488C16.348 12.368 16.008 12.308 15.624 12.308C15.072 12.308 14.628 12.432 14.292 12.68C13.956 12.92 13.788 13.264 13.788 13.712C13.788 14.008 13.856 14.248 13.992 14.432C14.136 14.616 14.34 14.768 14.604 14.888C14.868 15 15.184 15.1 15.552 15.188L16.188 15.344C16.668 15.448 17.104 15.592 17.496 15.776C17.888 15.952 18.196 16.196 18.42 16.508C18.652 16.812 18.768 17.212 18.768 17.708C18.768 18.204 18.644 18.636 18.396 19.004C18.148 19.372 17.796 19.66 17.34 19.868C16.892 20.068 16.364 20.168 15.756 20.168ZM15.3 21.392V10.208H16.224V21.392H15.3Z" fill="#FEFEFE"/>
</svg>
